<svg xmlns="http://www.w3.org/2000/svg" xmlns:xlink="http://www.w3.org/1999/xlink" width="500" zoomAndPan="magnify" viewBox="0 0 375 374.999991" height="500" preserveAspectRatio="xMidYMid meet" version="1.0"><defs><filter x="0%" y="0%" width="100%" height="100%" id="150976cc29"><feColorMatrix values="0 0 0 0 1 0 0 0 0 1 0 0 0 0 1 0 0 0 1 0" color-interpolation-filters="sRGB"/></filter><g/><mask id="72ec3d063d"><g filter="url(#150976cc29)"><rect x="-37.5" width="450" fill="#000000" y="-37.499999" height="449.999989" fill-opacity="0.9686"/></g></mask><clipPath id="a5200b3126"><rect x="0" width="122" y="0" height="314"/></clipPath><mask id="5ffbf85faa"><g filter="url(#150976cc29)"><rect x="-37.5" width="450" fill="#000000" y="-37.499999" height="449.999989" fill-opacity="0.949"/></g></mask><clipPath id="330d793862"><rect x="0" width="125" y="0" height="247"/></clipPath><mask id="1287d3ff10"><g filter="url(#150976cc29)"><rect x="-37.5" width="450" fill="#000000" y="-37.499999" height="449.999989" fill-opacity="0.9686"/></g></mask><clipPath id="fd79947250"><rect x="0" width="151" y="0" height="329"/></clipPath><mask id="6b117daee0"><g filter="url(#150976cc29)"><rect x="-37.5" width="450" fill="#000000" y="-37.499999" height="449.999989" fill-opacity="0.9686"/></g></mask><clipPath id="1a7dfc05f2"><rect x="0" width="83" y="0" height="45"/></clipPath><mask id="406c42f1ab"><g filter="url(#150976cc29)"><rect x="-37.5" width="450" fill="#000000" y="-37.499999" height="449.999989" fill-opacity="0.949"/></g></mask><clipPath id="7003907251"><rect x="0" width="19" y="0" height="35"/></clipPath><mask id="87a4fe1295"><g filter="url(#150976cc29)"><rect x="-37.5" width="450" fill="#000000" y="-37.499999" height="449.999989" fill-opacity="0.9686"/></g></mask><clipPath id="e58e70ef89"><rect x="0" width="222" y="0" height="45"/></clipPath><clipPath id="c0a164f053"><path d="M 51 112 L 69 112 L 69 129 L 51 129 Z M 51 112 " clip-rule="nonzero"/></clipPath><clipPath id="4f8ed528ef"><path d="M 48.332031 117.257812 L 61.871094 107.828125 L 70.871094 120.753906 L 57.332031 130.183594 Z M 48.332031 117.257812 " clip-rule="nonzero"/></clipPath><clipPath id="6608b15c6a"><path d="M 48.332031 117.257812 L 61.871094 107.828125 L 70.871094 120.753906 L 57.332031 130.183594 Z M 48.332031 117.257812 " clip-rule="nonzero"/></clipPath><clipPath id="c7904f406a"><path d="M 71 90 L 97 90 L 97 116 L 71 116 Z M 71 90 " clip-rule="nonzero"/></clipPath><clipPath id="ff105d347d"><path d="M 66.675781 96.644531 L 88.730469 83.839844 L 101.15625 105.242188 L 79.105469 118.046875 Z M 66.675781 96.644531 " clip-rule="nonzero"/></clipPath><clipPath id="dbaa6a5d6f"><path d="M 66.675781 96.644531 L 88.730469 83.839844 L 101.15625 105.242188 L 79.105469 118.046875 Z M 66.675781 96.644531 " clip-rule="nonzero"/></clipPath><clipPath id="6274cd10ab"><path d="M 99 74 L 131 74 L 131 104 L 99 104 Z M 99 74 " clip-rule="nonzero"/></clipPath><clipPath id="01febdf143"><path d="M 93.300781 82.410156 L 119.042969 65.589844 L 135.039062 90.078125 L 109.296875 106.894531 Z M 93.300781 82.410156 " clip-rule="nonzero"/></clipPath><clipPath id="e79c7d58bc"><path d="M 93.300781 82.410156 L 119.042969 65.589844 L 135.039062 90.078125 L 109.296875 106.894531 Z M 93.300781 82.410156 " clip-rule="nonzero"/></clipPath><clipPath id="d28e55aed9"><path d="M 134 58 L 172 58 L 172 96 L 134 96 Z M 134 58 " clip-rule="nonzero"/></clipPath><clipPath id="c2947b31f0"><path d="M 126.667969 68.914062 L 158.425781 48.972656 L 177.570312 79.460938 L 145.808594 99.402344 Z M 126.667969 68.914062 " clip-rule="nonzero"/></clipPath><clipPath id="3d55f22b54"><path d="M 126.667969 68.914062 L 158.425781 48.972656 L 177.570312 79.460938 L 145.808594 99.402344 Z M 126.667969 68.914062 " clip-rule="nonzero"/></clipPath><clipPath id="f704466e39"><path d="M 177 51 L 222 51 L 222 95 L 177 95 Z M 177 51 " clip-rule="nonzero"/></clipPath><clipPath id="a6eb0734a1"><path d="M 168.242188 63.261719 L 205.71875 39.734375 L 228.449219 75.9375 L 190.972656 99.46875 Z M 168.242188 63.261719 " clip-rule="nonzero"/></clipPath><clipPath id="71ef85e4e7"><path d="M 168.242188 63.261719 L 205.71875 39.734375 L 228.449219 75.9375 L 190.972656 99.46875 Z M 168.242188 63.261719 " clip-rule="nonzero"/></clipPath><clipPath id="ca44736437"><path d="M 226 53 L 278 53 L 278 104 L 226 104 Z M 226 53 " clip-rule="nonzero"/></clipPath><clipPath id="d2be62b3be"><path d="M 216.148438 67.035156 L 259.339844 39.917969 L 285.261719 81.207031 L 242.070312 108.324219 Z M 216.148438 67.035156 " clip-rule="nonzero"/></clipPath><clipPath id="6555b711d3"><path d="M 216.148438 67.035156 L 259.339844 39.917969 L 285.261719 81.207031 L 242.070312 108.324219 Z M 216.148438 67.035156 " clip-rule="nonzero"/></clipPath><clipPath id="f46ab8e70b"><path d="M 273 73 L 331 73 L 331 131 L 273 131 Z M 273 73 " clip-rule="nonzero"/></clipPath><clipPath id="5b88f74435"><path d="M 261.484375 88.921875 L 310.394531 58.214844 L 339.90625 105.21875 L 290.996094 135.925781 Z M 261.484375 88.921875 " clip-rule="nonzero"/></clipPath><clipPath id="1f7b7fb324"><path d="M 261.484375 88.921875 L 310.394531 58.214844 L 339.90625 105.21875 L 290.996094 135.925781 Z M 261.484375 88.921875 " clip-rule="nonzero"/></clipPath></defs><g mask="url(#72ec3d063d)"><g transform="matrix(1, 0, 0, 1, 3, 41)"><g clip-path="url(#a5200b3126)"><g fill="#050c30" fill-opacity="1"><g transform="translate(1.253726, 240.292271)"><g><path d="M 110.21875 -41.25 C 110.21875 -27.789062 105.3125 -16.867188 95.5 -8.484375 C 85.6875 -0.109375 72.832031 4.078125 56.9375 4.078125 C 48.195312 4.078125 38.882812 2.359375 29 -1.078125 C 24.5625 -2.503906 21.628906 -3.21875 20.203125 -3.21875 C 18.484375 -3.21875 17.117188 -2.679688 16.109375 -1.609375 C 15.109375 -0.535156 14.320312 1.359375 13.75 4.078125 L 7.515625 4.078125 L 7.515625 -48.984375 L 13.75 -48.984375 C 15.613281 -41.253906 17.441406 -35.238281 19.234375 -30.9375 C 21.023438 -26.644531 23.492188 -22.492188 26.640625 -18.484375 C 34.804688 -8.171875 45.117188 -3.015625 57.578125 -3.015625 C 65.890625 -3.015625 72.476562 -5.195312 77.34375 -9.5625 C 82.21875 -13.925781 84.65625 -19.832031 84.65625 -27.28125 C 84.65625 -33.007812 83.003906 -37.664062 79.703125 -41.25 C 76.410156 -44.832031 70.039062 -48.84375 60.59375 -53.28125 L 46.1875 -60.15625 C 27.71875 -69.039062 16.257812 -79.140625 11.8125 -90.453125 C 10.238281 -94.890625 9.453125 -99.613281 9.453125 -104.625 C 9.453125 -118.238281 13.640625 -128.945312 22.015625 -136.75 C 30.398438 -144.550781 41.894531 -148.453125 56.5 -148.453125 C 64.382812 -148.453125 72.765625 -146.804688 81.640625 -143.515625 C 85.941406 -142.085938 88.953125 -141.375 90.671875 -141.375 C 92.671875 -141.375 94.132812 -141.875 95.0625 -142.875 C 96 -143.875 96.828125 -145.804688 97.546875 -148.671875 L 103.984375 -148.671875 L 103.984375 -102.046875 L 97.96875 -102.046875 C 95.820312 -109.066406 93.707031 -114.507812 91.625 -118.375 C 89.550781 -122.25 86.65625 -126.046875 82.9375 -129.765625 C 75.195312 -137.785156 66.382812 -141.796875 56.5 -141.796875 C 49.195312 -141.796875 43.429688 -139.863281 39.203125 -136 C 34.984375 -132.132812 32.875 -126.90625 32.875 -120.3125 C 32.875 -115.007812 34.375 -110.710938 37.375 -107.421875 C 40.382812 -104.128906 46.257812 -100.332031 55 -96.03125 L 86.578125 -80.359375 C 93.597656 -76.921875 99.289062 -71.546875 103.65625 -64.234375 C 108.03125 -56.929688 110.21875 -49.269531 110.21875 -41.25 Z M 110.21875 -41.25 "/></g></g></g></g></g></g><g mask="url(#5ffbf85faa)"><g transform="matrix(1, 0, 0, 1, 108, 80)"><g clip-path="url(#330d793862)"><g fill="#1b4321" fill-opacity="1"><g transform="translate(0.150466, 203.884768)"><g><path d="M 31.125 0 C 32 -10.664062 33.820312 -21.769531 36.59375 -33.3125 C 39.375 -44.851562 42.773438 -56.175781 46.796875 -67.28125 C 50.816406 -78.382812 55.304688 -88.867188 60.265625 -98.734375 C 65.234375 -108.597656 70.273438 -117.109375 75.390625 -124.265625 L 9.421875 -124.265625 L 9.421875 -152.109375 L 115.71875 -152.109375 L 115.71875 -128.4375 C 111.039062 -123.320312 105.890625 -116.234375 100.265625 -107.171875 C 94.640625 -98.117188 89.304688 -87.851562 84.265625 -76.375 C 79.222656 -64.90625 74.835938 -52.59375 71.109375 -39.4375 C 67.390625 -26.289062 65.09375 -13.144531 64.21875 0 Z M 31.125 0 "/></g></g></g></g></g></g><path stroke-linecap="butt" transform="matrix(0.750838, 0, 0, 0.75, 156.736869, 201.613933)" fill="none" stroke-linejoin="miter" d="M 0.00188142 0.999131 L 55.94979 0.999131 " stroke="#b8b8b8" stroke-width="2" stroke-opacity="1" stroke-miterlimit="4"/><path stroke-linecap="butt" transform="matrix(0.750838, 0, 0, 0.75, 150.091473, 219.813706)" fill="none" stroke-linejoin="miter" d="M -0.00216997 0.998393 L 55.950942 0.998393 " stroke="#b8b8b8" stroke-width="2" stroke-opacity="1" stroke-miterlimit="4"/><path stroke-linecap="butt" transform="matrix(0.750838, 0, 0, 0.75, 144.402432, 238.378885)" fill="none" stroke-linejoin="miter" d="M -0.000117292 1.000028 L 55.952994 1.000028 " stroke="#b8b8b8" stroke-width="2" stroke-opacity="1" stroke-miterlimit="4"/><path stroke-linecap="butt" transform="matrix(0.750838, 0, 0, 0.75, 138.998052, 255.863158)" fill="none" stroke-linejoin="miter" d="M 0.00259421 1.000165 L 55.950503 1.000165 " stroke="#b8b8b8" stroke-width="2" stroke-opacity="1" stroke-miterlimit="4"/><path stroke-linecap="butt" transform="matrix(0.750838, 0, 0, 0.75, 134.674565, 274.428323)" fill="none" stroke-linejoin="miter" d="M 0.00161952 1.00182 L 55.949529 1.00182 " stroke="#b8b8b8" stroke-width="2" stroke-opacity="1" stroke-miterlimit="4"/><path stroke-linecap="butt" transform="matrix(0.750838, 0, 0, 0.75, 156.736869, 205.072662)" fill="none" stroke-linejoin="miter" d="M 0.00188142 1.002076 L 55.94979 1.002076 " stroke="#b8b8b8" stroke-width="2" stroke-opacity="1" stroke-miterlimit="4"/><path stroke-linecap="butt" transform="matrix(0.750838, 0, 0, 0.75, 150.091473, 223.272451)" fill="none" stroke-linejoin="miter" d="M -0.00216997 1.001315 L 55.950942 1.001315 " stroke="#b8b8b8" stroke-width="2" stroke-opacity="1" stroke-miterlimit="4"/><path stroke-linecap="butt" transform="matrix(0.750838, 0, 0, 0.75, 144.402432, 241.837602)" fill="none" stroke-linejoin="miter" d="M -0.000117292 0.997781 L 55.952994 0.997781 " stroke="#b8b8b8" stroke-width="2" stroke-opacity="1" stroke-miterlimit="4"/><path stroke-linecap="butt" transform="matrix(0.750838, 0, 0, 0.75, 138.998052, 259.321917)" fill="none" stroke-linejoin="miter" d="M 0.00259421 0.99786 L 55.950503 0.99786 " stroke="#b8b8b8" stroke-width="2" stroke-opacity="1" stroke-miterlimit="4"/><path stroke-linecap="butt" transform="matrix(0.750838, 0, 0, 0.75, 134.674565, 277.887051)" fill="none" stroke-linejoin="miter" d="M 0.00161952 0.999557 L 55.949529 0.999557 " stroke="#b8b8b8" stroke-width="2" stroke-opacity="1" stroke-miterlimit="4"/><path stroke-linecap="butt" transform="matrix(0.750838, 0, 0, 0.75, 154.575112, 208.780621)" fill="none" stroke-linejoin="miter" d="M -0.0011896 2.500839 L 55.951922 2.500839 " stroke="#b8b8b8" stroke-width="5" stroke-opacity="1" stroke-miterlimit="4"/><path stroke-linecap="butt" transform="matrix(0.750838, 0, 0, 0.75, 147.929731, 226.98041)" fill="none" stroke-linejoin="miter" d="M -0.0000576502 2.500079 L 55.953054 2.500079 " stroke="#b8b8b8" stroke-width="5" stroke-opacity="1" stroke-miterlimit="4"/><path stroke-linecap="butt" transform="matrix(0.750838, 0, 0, 0.75, 142.24069, 245.545561)" fill="none" stroke-linejoin="miter" d="M 0.00199503 2.501753 L 55.949904 2.501753 " stroke="#b8b8b8" stroke-width="5" stroke-opacity="1" stroke-miterlimit="4"/><path stroke-linecap="butt" transform="matrix(0.750838, 0, 0, 0.75, 136.83631, 263.029876)" fill="none" stroke-linejoin="miter" d="M -0.000495998 2.501832 L 55.952616 2.501832 " stroke="#b8b8b8" stroke-width="5" stroke-opacity="1" stroke-miterlimit="4"/><path stroke-linecap="butt" transform="matrix(0.750838, 0, 0, 0.75, 135.755446, 280.98051)" fill="none" stroke-linejoin="miter" d="M -0.00205069 2.499946 L 55.951061 2.499946 " stroke="#b8b8b8" stroke-width="5" stroke-opacity="1" stroke-miterlimit="4"/><g mask="url(#1287d3ff10)"><g transform="matrix(1, 0, 0, 1, 222, 33)"><g clip-path="url(#fd79947250)"><g fill="#050c30" fill-opacity="1"><g transform="translate(0.145493, 251.438249)"><g><path d="M 142.453125 -106.390625 L 135.953125 -106.390625 C 134.015625 -119.679688 129.796875 -129.203125 123.296875 -134.953125 C 116.804688 -140.703125 106.691406 -143.800781 92.953125 -144.25 L 92.953125 -26.203125 C 92.953125 -17.691406 94.179688 -12.316406 96.640625 -10.078125 C 99.109375 -7.835938 105.195312 -6.34375 114.90625 -5.59375 L 114.90625 0 L 34.9375 0 L 34.9375 -5.59375 C 44.5 -6.34375 50.507812 -7.875 52.96875 -10.1875 C 55.4375 -12.5 56.671875 -17.835938 56.671875 -26.203125 L 56.671875 -144.25 C 42.785156 -143.800781 32.59375 -140.703125 26.09375 -134.953125 C 19.59375 -129.203125 15.375 -119.679688 13.4375 -106.390625 L 6.9375 -106.390625 L 7.609375 -151.40625 L 142 -151.40625 Z M 142.453125 -106.390625 "/></g></g></g></g></g></g><g mask="url(#6b117daee0)"><g transform="matrix(1, 0, 0, 1, 10, 278)"><g clip-path="url(#1a7dfc05f2)"><g fill="#050c30" fill-opacity="1"><g transform="translate(0.25574, 33.924648)"><g><path d="M 15.53125 -5.8125 C 15.53125 -3.914062 14.835938 -2.375 13.453125 -1.1875 C 12.066406 -0.0078125 10.253906 0.578125 8.015625 0.578125 C 6.785156 0.578125 5.472656 0.332031 4.078125 -0.15625 C 3.453125 -0.351562 3.039062 -0.453125 2.84375 -0.453125 C 2.601562 -0.453125 2.410156 -0.375 2.265625 -0.21875 C 2.128906 -0.0703125 2.019531 0.191406 1.9375 0.578125 L 1.0625 0.578125 L 1.0625 -6.90625 L 1.9375 -6.90625 C 2.195312 -5.8125 2.453125 -4.960938 2.703125 -4.359375 C 2.960938 -3.753906 3.3125 -3.171875 3.75 -2.609375 C 4.90625 -1.148438 6.359375 -0.421875 8.109375 -0.421875 C 9.273438 -0.421875 10.203125 -0.726562 10.890625 -1.34375 C 11.578125 -1.957031 11.921875 -2.789062 11.921875 -3.84375 C 11.921875 -4.644531 11.6875 -5.296875 11.21875 -5.796875 C 10.757812 -6.304688 9.863281 -6.875 8.53125 -7.5 L 6.5 -8.46875 C 3.90625 -9.71875 2.296875 -11.140625 1.671875 -12.734375 C 1.441406 -13.367188 1.328125 -14.035156 1.328125 -14.734375 C 1.328125 -16.648438 1.914062 -18.15625 3.09375 -19.25 C 4.28125 -20.351562 5.898438 -20.90625 7.953125 -20.90625 C 9.066406 -20.90625 10.25 -20.675781 11.5 -20.21875 C 12.101562 -20.019531 12.523438 -19.921875 12.765625 -19.921875 C 13.054688 -19.921875 13.265625 -19.988281 13.390625 -20.125 C 13.523438 -20.269531 13.640625 -20.539062 13.734375 -20.9375 L 14.65625 -20.9375 L 14.65625 -14.375 L 13.796875 -14.375 C 13.492188 -15.363281 13.195312 -16.128906 12.90625 -16.671875 C 12.613281 -17.222656 12.207031 -17.757812 11.6875 -18.28125 C 10.59375 -19.40625 9.347656 -19.96875 7.953125 -19.96875 C 6.929688 -19.96875 6.117188 -19.695312 5.515625 -19.15625 C 4.921875 -18.613281 4.625 -17.878906 4.625 -16.953125 C 4.625 -16.203125 4.835938 -15.59375 5.265625 -15.125 C 5.691406 -14.664062 6.519531 -14.132812 7.75 -13.53125 L 12.203125 -11.3125 C 13.191406 -10.832031 13.992188 -10.078125 14.609375 -9.046875 C 15.222656 -8.015625 15.53125 -6.9375 15.53125 -5.8125 Z M 15.53125 -5.8125 "/></g></g></g><g fill="#050c30" fill-opacity="1"><g transform="translate(17.082855, 33.924648)"><g><path d="M 19.25 -14.375 L 18.375 -14.375 C 18.113281 -16.164062 17.539062 -17.453125 16.65625 -18.234375 C 15.78125 -19.015625 14.414062 -19.429688 12.5625 -19.484375 L 12.5625 -3.546875 C 12.5625 -2.390625 12.726562 -1.660156 13.0625 -1.359375 C 13.394531 -1.054688 14.21875 -0.851562 15.53125 -0.75 L 15.53125 0 L 4.71875 0 L 4.71875 -0.75 C 6.007812 -0.851562 6.820312 -1.0625 7.15625 -1.375 C 7.488281 -1.6875 7.65625 -2.410156 7.65625 -3.546875 L 7.65625 -19.484375 C 5.78125 -19.429688 4.398438 -19.015625 3.515625 -18.234375 C 2.640625 -17.453125 2.070312 -16.164062 1.8125 -14.375 L 0.9375 -14.375 L 1.03125 -20.453125 L 19.1875 -20.453125 Z M 19.25 -14.375 "/></g></g></g><g fill="#050c30" fill-opacity="1"><g transform="translate(37.269327, 33.924648)"><g><path d="M 20.859375 0 L 11.046875 0 L 11.046875 -0.75 L 12.015625 -0.84375 C 12.535156 -0.863281 12.90625 -0.945312 13.125 -1.09375 C 13.351562 -1.25 13.46875 -1.5 13.46875 -1.84375 C 13.46875 -2.425781 13.003906 -3.800781 12.078125 -5.96875 L 5.265625 -5.96875 L 4.8125 -4.75 C 4.226562 -3.300781 3.9375 -2.382812 3.9375 -2 C 3.9375 -1.613281 4.125 -1.320312 4.5 -1.125 C 4.882812 -0.9375 5.523438 -0.8125 6.421875 -0.75 L 6.421875 0 L 0.265625 0 L 0.265625 -0.75 C 0.992188 -0.894531 1.53125 -1.164062 1.875 -1.5625 C 2.21875 -1.96875 2.671875 -2.878906 3.234375 -4.296875 L 9.953125 -20.890625 L 10.8125 -20.890625 L 17.546875 -4.96875 C 18.359375 -3.070312 18.945312 -1.894531 19.3125 -1.4375 C 19.675781 -0.976562 20.191406 -0.75 20.859375 -0.75 Z M 11.625 -7.140625 L 8.5625 -14.5 L 5.71875 -7.140625 Z M 11.625 -7.140625 "/></g></g></g><g fill="#050c30" fill-opacity="1"><g transform="translate(59.120354, 33.924648)"><g><path d="M 21.640625 0 L 15.4375 0 L 9.171875 -9.46875 L 8.359375 -9.46875 L 8.359375 -3.546875 C 8.359375 -2.472656 8.507812 -1.773438 8.8125 -1.453125 C 9.113281 -1.128906 9.847656 -0.894531 11.015625 -0.75 L 11.015625 0 L 0.78125 0 L 0.78125 -0.75 C 1.976562 -0.894531 2.722656 -1.117188 3.015625 -1.421875 C 3.304688 -1.722656 3.453125 -2.429688 3.453125 -3.546875 L 3.453125 -16.921875 C 3.453125 -18.003906 3.285156 -18.71875 2.953125 -19.0625 C 2.617188 -19.40625 1.894531 -19.617188 0.78125 -19.703125 L 0.78125 -20.453125 L 10.53125 -20.453125 C 13.289062 -20.453125 15.398438 -19.988281 16.859375 -19.0625 C 18.328125 -18.132812 19.0625 -16.804688 19.0625 -15.078125 C 19.0625 -13.660156 18.609375 -12.53125 17.703125 -11.6875 C 16.953125 -11.019531 15.820312 -10.441406 14.3125 -9.953125 L 20.40625 -1.328125 C 20.707031 -0.941406 21.117188 -0.75 21.640625 -0.75 Z M 13.890625 -14.953125 C 13.890625 -16.546875 13.585938 -17.691406 12.984375 -18.390625 C 12.378906 -19.085938 11.378906 -19.4375 9.984375 -19.4375 C 9.222656 -19.4375 8.75 -19.28125 8.5625 -18.96875 C 8.425781 -18.6875 8.359375 -18.414062 8.359375 -18.15625 L 8.359375 -10.4375 C 10.367188 -10.457031 11.738281 -10.710938 12.46875 -11.203125 C 13.414062 -11.828125 13.890625 -13.078125 13.890625 -14.953125 Z M 13.890625 -14.953125 "/></g></g></g></g></g></g><g mask="url(#406c42f1ab)"><g transform="matrix(1, 0, 0, 1, 103, 283)"><g clip-path="url(#7003907251)"><g fill="#1b4321" fill-opacity="1"><g transform="translate(0.735713, 28.728107)"><g><path d="M 4.296875 0 C 4.421875 -1.46875 4.671875 -3 5.046875 -4.59375 C 5.429688 -6.1875 5.898438 -7.75 6.453125 -9.28125 C 7.015625 -10.8125 7.632812 -12.257812 8.3125 -13.625 C 9 -14.988281 9.695312 -16.164062 10.40625 -17.15625 L 1.296875 -17.15625 L 1.296875 -21 L 15.96875 -21 L 15.96875 -17.71875 C 15.320312 -17.019531 14.609375 -16.046875 13.828125 -14.796875 C 13.054688 -13.546875 12.320312 -12.128906 11.625 -10.546875 C 10.9375 -8.960938 10.332031 -7.257812 9.8125 -5.4375 C 9.300781 -3.625 8.984375 -1.8125 8.859375 0 Z M 4.296875 0 "/></g></g></g></g></g></g><g mask="url(#87a4fe1295)"><g transform="matrix(1, 0, 0, 1, 129, 278)"><g clip-path="url(#e58e70ef89)"><g fill="#050c30" fill-opacity="1"><g transform="translate(0.599205, 33.924648)"><g><path d="M 19.25 -14.375 L 18.375 -14.375 C 18.113281 -16.164062 17.539062 -17.453125 16.65625 -18.234375 C 15.78125 -19.015625 14.414062 -19.429688 12.5625 -19.484375 L 12.5625 -3.546875 C 12.5625 -2.390625 12.726562 -1.660156 13.0625 -1.359375 C 13.394531 -1.054688 14.21875 -0.851562 15.53125 -0.75 L 15.53125 0 L 4.71875 0 L 4.71875 -0.75 C 6.007812 -0.851562 6.820312 -1.0625 7.15625 -1.375 C 7.488281 -1.6875 7.65625 -2.410156 7.65625 -3.546875 L 7.65625 -19.484375 C 5.78125 -19.429688 4.398438 -19.015625 3.515625 -18.234375 C 2.640625 -17.453125 2.070312 -16.164062 1.8125 -14.375 L 0.9375 -14.375 L 1.03125 -20.453125 L 19.1875 -20.453125 Z M 19.25 -14.375 "/></g></g></g><g fill="#050c30" fill-opacity="1"><g transform="translate(20.785677, 33.924648)"><g><path d="M 19.40625 -6.296875 L 18.1875 0 L 0.484375 0 L 0.484375 -0.75 C 1.609375 -0.875 2.332031 -1.066406 2.65625 -1.328125 C 2.976562 -1.585938 3.140625 -2.113281 3.140625 -2.90625 L 3.140625 -17.546875 C 3.140625 -18.316406 2.957031 -18.851562 2.59375 -19.15625 C 2.238281 -19.457031 1.535156 -19.640625 0.484375 -19.703125 L 0.484375 -20.453125 L 17.953125 -20.453125 L 17.953125 -14.375 L 17.1875 -14.375 C 16.800781 -16.394531 16.125 -17.742188 15.15625 -18.421875 C 14.1875 -19.097656 12.472656 -19.4375 10.015625 -19.4375 C 9.234375 -19.4375 8.707031 -19.335938 8.4375 -19.140625 C 8.175781 -18.953125 8.046875 -18.578125 8.046875 -18.015625 L 8.046875 -10.984375 C 9.679688 -10.960938 10.851562 -11.273438 11.5625 -11.921875 C 12.269531 -12.566406 12.734375 -13.757812 12.953125 -15.5 L 13.734375 -15.5 L 13.734375 -5.265625 L 12.953125 -5.265625 C 12.773438 -7.023438 12.328125 -8.242188 11.609375 -8.921875 C 10.890625 -9.609375 9.703125 -9.953125 8.046875 -9.953125 L 8.046875 -2.640625 C 8.046875 -1.992188 8.222656 -1.546875 8.578125 -1.296875 C 8.929688 -1.054688 9.59375 -0.9375 10.5625 -0.9375 C 12.820312 -0.9375 14.640625 -1.492188 16.015625 -2.609375 C 16.941406 -3.390625 17.785156 -4.617188 18.546875 -6.296875 Z M 19.40625 -6.296875 "/></g></g></g><g fill="#050c30" fill-opacity="1"><g transform="translate(40.972148, 33.924648)"><g><path d="M 20.796875 -3.84375 C 19.265625 -2.164062 17.878906 -1.007812 16.640625 -0.375 C 15.410156 0.257812 13.929688 0.578125 12.203125 0.578125 C 9.046875 0.578125 6.46875 -0.410156 4.46875 -2.390625 C 2.476562 -4.367188 1.484375 -6.921875 1.484375 -10.046875 C 1.484375 -13.148438 2.484375 -15.734375 4.484375 -17.796875 C 6.492188 -19.867188 9.003906 -20.90625 12.015625 -20.90625 C 13.429688 -20.90625 14.992188 -20.554688 16.703125 -19.859375 C 17.347656 -19.578125 17.8125 -19.4375 18.09375 -19.4375 C 18.375 -19.4375 18.609375 -19.53125 18.796875 -19.71875 C 18.992188 -19.90625 19.207031 -20.273438 19.4375 -20.828125 L 20.25 -20.828125 L 20.25 -13.734375 L 19.484375 -13.734375 C 18.960938 -14.890625 18.484375 -15.785156 18.046875 -16.421875 C 17.617188 -17.054688 17.082031 -17.65625 16.4375 -18.21875 C 15.164062 -19.351562 13.820312 -19.921875 12.40625 -19.921875 C 10.570312 -19.921875 9.1875 -19.109375 8.25 -17.484375 C 7.3125 -15.859375 6.84375 -13.472656 6.84375 -10.328125 C 6.84375 -7.378906 7.273438 -5.109375 8.140625 -3.515625 C 8.585938 -2.722656 9.25 -2.082031 10.125 -1.59375 C 11 -1.113281 11.929688 -0.875 12.921875 -0.875 C 13.847656 -0.875 14.753906 -1.054688 15.640625 -1.421875 C 16.390625 -1.703125 17.0625 -2.066406 17.65625 -2.515625 C 18.25 -2.972656 18.992188 -3.664062 19.890625 -4.59375 Z M 20.796875 -3.84375 "/></g></g></g><g fill="#050c30" fill-opacity="1"><g transform="translate(62.823175, 33.924648)"><g><path d="M 22.96875 0 L 12.6875 0 L 12.6875 -0.75 C 13.789062 -0.875 14.519531 -1.078125 14.875 -1.359375 C 15.226562 -1.640625 15.40625 -2.15625 15.40625 -2.90625 L 15.40625 -9.859375 L 8.109375 -9.859375 L 8.109375 -2.90625 C 8.109375 -2.15625 8.285156 -1.640625 8.640625 -1.359375 C 8.992188 -1.078125 9.722656 -0.875 10.828125 -0.75 L 10.828125 0 L 0.640625 0 L 0.640625 -0.75 C 1.679688 -0.894531 2.367188 -1.101562 2.703125 -1.375 C 3.035156 -1.644531 3.203125 -2.15625 3.203125 -2.90625 L 3.203125 -17.546875 C 3.203125 -18.296875 3.023438 -18.816406 2.671875 -19.109375 C 2.328125 -19.398438 1.648438 -19.597656 0.640625 -19.703125 L 0.640625 -20.453125 L 10.828125 -20.453125 L 10.828125 -19.703125 C 9.785156 -19.617188 9.070312 -19.429688 8.6875 -19.140625 C 8.300781 -18.847656 8.109375 -18.316406 8.109375 -17.546875 L 8.109375 -11.28125 L 15.40625 -11.28125 L 15.40625 -17.546875 C 15.40625 -18.316406 15.210938 -18.847656 14.828125 -19.140625 C 14.441406 -19.429688 13.726562 -19.617188 12.6875 -19.703125 L 12.6875 -20.453125 L 22.96875 -20.453125 L 22.96875 -19.703125 C 21.9375 -19.617188 21.234375 -19.425781 20.859375 -19.125 C 20.492188 -18.820312 20.3125 -18.296875 20.3125 -17.546875 L 20.3125 -2.90625 C 20.3125 -2.15625 20.484375 -1.644531 20.828125 -1.375 C 21.171875 -1.101562 21.882812 -0.894531 22.96875 -0.75 Z M 22.96875 0 "/></g></g></g><g fill="#050c30" fill-opacity="1"><g transform="translate(86.36902, 33.924648)"><g><path d="M 21.21875 -19.703125 C 20.226562 -19.535156 19.585938 -19.304688 19.296875 -19.015625 C 19.003906 -18.722656 18.859375 -18.144531 18.859375 -17.28125 L 18.859375 0.546875 L 18.015625 0.546875 L 4.484375 -15.921875 L 4.484375 -3.75 C 4.484375 -2.6875 4.664062 -1.957031 5.03125 -1.5625 C 5.40625 -1.164062 6.179688 -0.894531 7.359375 -0.75 L 7.359375 0 L 0.484375 0 L 0.484375 -0.75 C 1.597656 -0.894531 2.316406 -1.117188 2.640625 -1.421875 C 2.972656 -1.722656 3.140625 -2.304688 3.140625 -3.171875 L 3.140625 -17.53125 C 2.421875 -18.394531 1.890625 -18.972656 1.546875 -19.265625 C 1.203125 -19.554688 0.878906 -19.703125 0.578125 -19.703125 L 0.578125 -20.453125 L 6.96875 -20.453125 L 17.53125 -7.46875 L 17.53125 -16.703125 C 17.53125 -17.773438 17.335938 -18.515625 16.953125 -18.921875 C 16.566406 -19.335938 15.816406 -19.597656 14.703125 -19.703125 L 14.703125 -20.453125 L 21.21875 -20.453125 Z M 21.21875 -19.703125 "/></g></g></g><g fill="#050c30" fill-opacity="1"><g transform="translate(108.220047, 33.924648)"><g><path d="M 22.484375 -10.171875 C 22.484375 -7.046875 21.476562 -4.472656 19.46875 -2.453125 C 17.46875 -0.429688 14.898438 0.578125 11.765625 0.578125 C 8.640625 0.578125 6.070312 -0.425781 4.0625 -2.4375 C 2.0625 -4.445312 1.0625 -7.015625 1.0625 -10.140625 C 1.0625 -13.285156 2.070312 -15.863281 4.09375 -17.875 C 6.125 -19.894531 8.722656 -20.90625 11.890625 -20.90625 C 14.941406 -20.90625 17.46875 -19.882812 19.46875 -17.84375 C 21.476562 -15.8125 22.484375 -13.253906 22.484375 -10.171875 Z M 17.125 -9.953125 C 17.125 -13.097656 16.664062 -15.546875 15.75 -17.296875 C 14.832031 -19.046875 13.535156 -19.921875 11.859375 -19.921875 C 10.085938 -19.921875 8.738281 -19.0625 7.8125 -17.34375 C 6.882812 -15.625 6.421875 -13.128906 6.421875 -9.859375 C 6.421875 -6.796875 6.878906 -4.457031 7.796875 -2.84375 C 8.710938 -1.226562 10.035156 -0.421875 11.765625 -0.421875 C 13.503906 -0.421875 14.832031 -1.234375 15.75 -2.859375 C 16.664062 -4.484375 17.125 -6.847656 17.125 -9.953125 Z M 17.125 -9.953125 "/></g></g></g><g fill="#050c30" fill-opacity="1"><g transform="translate(131.765892, 33.924648)"><g><path d="M 19.3125 -6.875 L 18.0625 0 L 0.578125 0 L 0.578125 -0.75 C 1.679688 -0.894531 2.390625 -1.097656 2.703125 -1.359375 C 3.015625 -1.617188 3.171875 -2.132812 3.171875 -2.90625 L 3.171875 -17.546875 C 3.171875 -18.316406 2.992188 -18.851562 2.640625 -19.15625 C 2.296875 -19.457031 1.609375 -19.640625 0.578125 -19.703125 L 0.578125 -20.453125 L 11.140625 -20.453125 L 11.140625 -19.703125 C 9.828125 -19.640625 8.988281 -19.441406 8.625 -19.109375 C 8.257812 -18.773438 8.078125 -18.046875 8.078125 -16.921875 L 8.078125 -2.640625 C 8.078125 -1.992188 8.242188 -1.546875 8.578125 -1.296875 C 8.910156 -1.054688 9.539062 -0.9375 10.46875 -0.9375 C 12.769531 -0.9375 14.535156 -1.492188 15.765625 -2.609375 C 16.296875 -3.085938 16.738281 -3.617188 17.09375 -4.203125 C 17.457031 -4.785156 17.90625 -5.675781 18.4375 -6.875 Z M 19.3125 -6.875 "/></g></g></g><g fill="#050c30" fill-opacity="1"><g transform="translate(151.952364, 33.924648)"><g><path d="M 22.484375 -10.171875 C 22.484375 -7.046875 21.476562 -4.472656 19.46875 -2.453125 C 17.46875 -0.429688 14.898438 0.578125 11.765625 0.578125 C 8.640625 0.578125 6.070312 -0.425781 4.0625 -2.4375 C 2.0625 -4.445312 1.0625 -7.015625 1.0625 -10.140625 C 1.0625 -13.285156 2.070312 -15.863281 4.09375 -17.875 C 6.125 -19.894531 8.722656 -20.90625 11.890625 -20.90625 C 14.941406 -20.90625 17.46875 -19.882812 19.46875 -17.84375 C 21.476562 -15.8125 22.484375 -13.253906 22.484375 -10.171875 Z M 17.125 -9.953125 C 17.125 -13.097656 16.664062 -15.546875 15.75 -17.296875 C 14.832031 -19.046875 13.535156 -19.921875 11.859375 -19.921875 C 10.085938 -19.921875 8.738281 -19.0625 7.8125 -17.34375 C 6.882812 -15.625 6.421875 -13.128906 6.421875 -9.859375 C 6.421875 -6.796875 6.878906 -4.457031 7.796875 -2.84375 C 8.710938 -1.226562 10.035156 -0.421875 11.765625 -0.421875 C 13.503906 -0.421875 14.832031 -1.234375 15.75 -2.859375 C 16.664062 -4.484375 17.125 -6.847656 17.125 -9.953125 Z M 17.125 -9.953125 "/></g></g></g><g fill="#050c30" fill-opacity="1"><g transform="translate(175.498209, 33.924648)"><g><path d="M 22.84375 -7.921875 C 21.71875 -7.804688 21.003906 -7.585938 20.703125 -7.265625 C 20.398438 -6.941406 20.25 -6.234375 20.25 -5.140625 L 20.25 -1.296875 C 19.28125 -0.734375 18.035156 -0.28125 16.515625 0.0625 C 15.003906 0.40625 13.460938 0.578125 11.890625 0.578125 C 8.722656 0.578125 6.132812 -0.40625 4.125 -2.375 C 2.125 -4.34375 1.125 -6.890625 1.125 -10.015625 C 1.125 -13.117188 2.125 -15.707031 4.125 -17.78125 C 6.132812 -19.863281 8.644531 -20.90625 11.65625 -20.90625 C 13.039062 -20.90625 14.601562 -20.554688 16.34375 -19.859375 C 16.96875 -19.578125 17.429688 -19.4375 17.734375 -19.4375 C 18.015625 -19.4375 18.253906 -19.535156 18.453125 -19.734375 C 18.660156 -19.929688 18.863281 -20.296875 19.0625 -20.828125 L 19.890625 -20.828125 L 19.890625 -13.734375 L 19.125 -13.734375 C 18.601562 -14.890625 18.125 -15.785156 17.6875 -16.421875 C 17.257812 -17.054688 16.722656 -17.65625 16.078125 -18.21875 C 14.765625 -19.351562 13.421875 -19.921875 12.046875 -19.921875 C 10.210938 -19.921875 8.828125 -19.097656 7.890625 -17.453125 C 6.953125 -15.804688 6.484375 -13.398438 6.484375 -10.234375 C 6.484375 -6.617188 7.132812 -3.972656 8.4375 -2.296875 C 9.40625 -1.046875 10.800781 -0.421875 12.625 -0.421875 C 13.632812 -0.421875 14.367188 -0.597656 14.828125 -0.953125 C 15.296875 -1.304688 15.53125 -1.867188 15.53125 -2.640625 L 15.53125 -5.8125 C 15.53125 -6.632812 15.34375 -7.171875 14.96875 -7.421875 C 14.59375 -7.679688 13.757812 -7.847656 12.46875 -7.921875 L 12.46875 -8.6875 L 22.84375 -8.6875 Z M 22.84375 -7.921875 "/></g></g></g><g fill="#050c30" fill-opacity="1"><g transform="translate(199.044054, 33.924648)"><g><path d="M 21.15625 -19.703125 C 20.207031 -19.554688 19.519531 -19.160156 19.09375 -18.515625 L 13.3125 -9.109375 L 13.3125 -3.546875 C 13.3125 -2.429688 13.460938 -1.71875 13.765625 -1.40625 C 14.066406 -1.09375 14.84375 -0.875 16.09375 -0.75 L 16.09375 0 L 5.59375 0 L 5.59375 -0.75 C 6.832031 -0.875 7.609375 -1.09375 7.921875 -1.40625 C 8.242188 -1.71875 8.40625 -2.429688 8.40625 -3.546875 L 8.40625 -7.984375 L 2.875 -18.03125 C 2.25 -19.082031 1.441406 -19.640625 0.453125 -19.703125 L 0.453125 -20.453125 L 10.59375 -20.453125 L 10.59375 -19.703125 L 9.84375 -19.671875 C 9.207031 -19.671875 8.765625 -19.597656 8.515625 -19.453125 C 8.265625 -19.316406 8.140625 -19.085938 8.140625 -18.765625 C 8.140625 -18.460938 8.320312 -17.988281 8.6875 -17.34375 C 8.789062 -17.15625 8.851562 -17.035156 8.875 -16.984375 L 12.5 -9.953125 L 15.859375 -15.5625 C 16.648438 -16.851562 17.046875 -17.8125 17.046875 -18.4375 C 17.046875 -18.875 16.875 -19.171875 16.53125 -19.328125 C 16.1875 -19.492188 15.507812 -19.617188 14.5 -19.703125 L 14.5 -20.453125 L 21.15625 -20.453125 Z M 21.15625 -19.703125 "/></g></g></g></g></g></g><g clip-path="url(#c0a164f053)"><g clip-path="url(#4f8ed528ef)"><g clip-path="url(#6608b15c6a)"><path fill="#eda800" d="M 61.988281 122.433594 L 68.285156 122.554688 L 63.273438 118.769531 L 65.390625 112.886719 L 60.257812 116.460938 L 55.101562 112.542969 L 56.988281 118.738281 L 51.855469 122.3125 L 58.105469 122.367188 L 59.921875 128.378906 Z M 61.988281 122.433594 " fill-opacity="1" fill-rule="nonzero"/></g></g></g><g clip-path="url(#c7904f406a)"><g clip-path="url(#ff105d347d)"><g clip-path="url(#dbaa6a5d6f)"><path fill="#eda800" d="M 87.210938 106.621094 L 96.945312 107.6875 L 89.625 101.085938 L 93.585938 92.21875 L 85.230469 97.070312 L 77.703125 90.242188 L 79.902344 100.164062 L 71.542969 105.015625 L 81.210938 105.972656 L 83.324219 115.597656 Z M 87.210938 106.621094 " fill-opacity="1" fill-rule="nonzero"/></g></g></g><g clip-path="url(#6274cd10ab)"><g clip-path="url(#01febdf143)"><g clip-path="url(#e79c7d58bc)"><path fill="#eda800" d="M 118.414062 92.738281 L 130.125 93.289062 L 121.011719 85.996094 L 125.296875 75.175781 L 115.539062 81.550781 L 106.171875 74 L 109.320312 85.613281 L 99.566406 91.988281 L 111.191406 92.410156 L 114.222656 103.675781 Z M 118.414062 92.738281 " fill-opacity="1" fill-rule="nonzero"/></g></g></g><g clip-path="url(#d28e55aed9)"><g clip-path="url(#c2947b31f0)"><g clip-path="url(#3d55f22b54)"><path fill="#eda800" d="M 157.195312 82.273438 L 171.507812 83.269531 L 160.492188 74.066406 L 165.917969 60.902344 L 153.875 68.464844 L 142.546875 58.941406 L 146.199219 73.28125 L 134.15625 80.84375 L 148.371094 81.679688 L 151.882812 95.589844 Z M 157.195312 82.273438 " fill-opacity="1" fill-rule="nonzero"/></g></g></g><g clip-path="url(#f704466e39)"><g clip-path="url(#a6eb0734a1)"><g clip-path="url(#71ef85e4e7)"><path fill="#eda800" d="M 204.375 79.203125 L 221.296875 80.429688 L 208.246094 69.488281 L 214.613281 53.902344 L 200.402344 62.824219 L 186.980469 51.5 L 191.347656 68.507812 L 177.140625 77.429688 L 193.941406 78.464844 L 198.140625 94.96875 Z M 204.375 79.203125 " fill-opacity="1" fill-rule="nonzero"/></g></g></g><g clip-path="url(#ca44736437)"><g clip-path="url(#d2be62b3be)"><g clip-path="url(#6555b711d3)"><path fill="#eda800" d="M 257.582031 85.070312 L 277.019531 86.382812 L 262.082031 73.9375 L 269.484375 56.074219 L 253.105469 66.355469 L 237.746094 53.476562 L 242.667969 72.910156 L 226.292969 83.191406 L 245.597656 84.285156 L 250.332031 103.136719 Z M 257.582031 85.070312 " fill-opacity="1" fill-rule="nonzero"/></g></g></g><g clip-path="url(#f46ab8e70b)"><g clip-path="url(#5b88f74435)"><g clip-path="url(#1f7b7fb324)"><path fill="#eda800" d="M 308.523438 109.539062 L 330.566406 111.082031 L 313.59375 96.894531 L 321.9375 76.613281 L 303.398438 88.253906 L 285.941406 73.570312 L 291.582031 95.671875 L 273.042969 107.3125 L 294.933594 108.613281 L 300.355469 130.050781 Z M 308.523438 109.539062 " fill-opacity="1" fill-rule="nonzero"/></g></g></g></svg>